<svg width="24" height="24" viewBox="0 0 24 24" fill="none" xmlns="http://www.w3.org/2000/svg">
<path d="M22.2768 21.2163L16.6128 15.5523C17.9739 13.9183 18.6526 11.8224 18.5078 9.70075C18.363 7.57905 17.4058 5.59486 15.8353 4.16096C14.2647 2.72705 12.2019 1.95383 10.0758 2.00213C7.9497 2.05044 5.92408 2.91657 4.42033 4.42033C2.91657 5.92408 2.05044 7.9497 2.00213 10.0758C1.95383 12.2019 2.72705 14.2647 4.16096 15.8353C5.59486 17.4058 7.57905 18.363 9.70075 18.5078C11.8224 18.6526 13.9183 17.9739 15.5523 16.6128L21.2163 22.2768L22.2768 21.2163ZM3.52682 10.2768C3.52682 8.9418 3.9227 7.63675 4.6644 6.52672C5.4061 5.41669 6.46031 4.55152 7.69371 4.04063C8.92711 3.52974 10.2843 3.39607 11.5937 3.65652C12.9031 3.91697 14.1058 4.55984 15.0498 5.50385C15.9938 6.44785 16.6367 7.65059 16.8971 8.95996C17.1576 10.2693 17.0239 11.6265 16.513 12.8599C16.0021 14.0933 15.137 15.1475 14.0269 15.8892C12.9169 16.6309 11.6118 17.0268 10.2768 17.0268C8.48722 17.0248 6.77148 16.313 5.50604 15.0476C4.2406 13.7822 3.52881 12.0664 3.52682 10.2768Z" fill="black"/>
</svg>
